<svg xmlns="http://www.w3.org/2000/svg" viewBox="0 0 50 50"><path d="M42.549 16.701a2.891 2.891 0 0 0-2.888 2.888c0 .387.079.756.218 1.094L31.33 28.64a2.867 2.867 0 0 0-2.466-.349l-2.732-3.442c.204-.401.324-.841.324-1.304 0-1.592-1.295-2.888-2.888-2.888s-2.888 1.296-2.888 2.888c0 .146.027.286.048.428l-6.895 5.407a2.868 2.868 0 0 0-1.54-.454 2.891 2.891 0 0 0-2.888 2.888c0 1.593 1.295 2.889 2.888 2.889s2.888-1.296 2.888-2.889c0-.294-.057-.573-.139-.84l6.667-5.228c.018.015.031.035.049.049a2.894 2.894 0 0 0 2.907.423l2.627 3.31c-.28.45-.448.965-.448 1.514a2.891 2.891 0 0 0 2.888 2.889 2.892 2.892 0 0 0 2.888-2.889 2.86 2.86 0 0 0-.115-.762l8.736-8.13c.395.203.835.328 1.309.328 1.592 0 2.888-1.296 2.888-2.888s-1.296-2.889-2.889-2.889zm-30.256 16a.889.889 0 1 1 .002-1.778.889.889 0 0 1-.002 1.778zm10.72-8.464a.89.89 0 0 1 .555-1.581.889.889 0 0 1 .629 1.515v.001h-.001c-.352.35-.971.235-1.183.065zm6.719 7.693a.889.889 0 0 1-.54-1.593c.004-.003.01-.004.014-.008l.001-.001a.869.869 0 0 1 .526-.175.89.89 0 0 1-.001 1.777zm12.817-11.453a.889.889 0 1 1 .001-1.777.889.889 0 0 1-.001 1.777z"/></svg>